<svg xmlns="http://www.w3.org/2000/svg" width="512" height="512" viewBox="0 0 380.65 380.65" enable-background="new 0 0 380.65 380.65"><path fill="#F6F5F5" d="M310.8 268.65h-44.84c-9.26 0-18.37 2.4-26.43 6.96-6.87 3.9-12.8 9.24-17.4 15.65-3.07-.54-6.17-.8-9.28-.8h-44.88c-3.12 0-6.22.26-9.28.8-4.6-6.4-10.55-11.75-17.4-15.64-8.08-4.56-17.2-6.96-26.45-6.95H70c-29.8.07-53.93 24.2-54 54v30.44c.03 3.18 2.62 5.75 5.8 5.75h92v16c0 3.2 2.6 5.8 5.8 5.8h141.45c3.2 0 5.8-2.6 5.8-5.8v-16h92c3.2 0 5.8-2.6 5.8-5.8v-30.4c-.07-29.73-24.1-53.85-53.84-54zm-196.4 70.6v1.24c0 .55 0 1.07 0 1.63V347.25H27.6v-24.6c.07-23.4 19.02-42.33 42.4-42.4h44.84c7.27 0 14.4 1.87 20.72 5.44 4.24 2.4 8.04 5.48 11.24 9.15-18.04 7.83-30.44 24.82-32.4 44.4zm140.72 5.2v24.64H125.56V344c0-.44 0-.88 0-1.3 0-.7 0-1.4 0-2.1v-1.03c0-.4 0-.8 0-1.2V335.36l.24-.96.4-1.43.28-.96c5.75-17.4 22-29.2 40.32-29.27l1.16-.64h44.88c21.3.07 39.26 15.88 42.04 37 0 .87 0 1.75.24 2.63 0 .9 0 1.8 0 2.72zm98.08 2.84h-86.4v-3.5c0-.43 0-.87 0-1.3 0-.46 0-.92 0-1.37 0-.64 0-1.32 0-1.96V330.5l-.28-1V327.52l-.56-1.56c-5.2-13.85-15.84-25-29.44-30.84 2.4-3.56 5.34-6.74 8.68-9.44 6.32-3.58 13.46-5.46 20.72-5.45h44.88c23.4.07 42.34 19 42.4 42.4v24.64z" class="active-path"/><circle cx="190.645" cy="77.85" r="6.56" fill="#F6F5F5" class="active-path"/><path fill="#F6F5F5" d="M121.28 189.17c-7.64-7.7-18.03-12-28.88-12-22.55-.02-40.85 18.25-40.87 40.8-.02 22.56 18.25 40.86 40.8 40.88s40.86-18.25 40.88-40.8c.02-10.83-4.27-21.22-11.9-28.88zm-8.2 49.48c-11.4 11.42-29.93 11.43-41.35 0-11.42-11.4-11.42-29.92 0-41.34 11.4-11.4 29.93-11.42 41.35 0 5.48 5.48 8.56 12.92 8.56 20.67.02 7.76-3.06 15.2-8.56 20.68z" class="active-path"/><circle cx="233.045" cy="77.85" r="6.56" fill="#F6F5F5" class="active-path"/><path fill="#F6F5F5" d="M258.73 22.73C239.16 7.68 215.1-.32 190.4 0c-24.68-.32-48.75 7.68-68.3 22.73-17.93 14.32-29 34.24-29 56.28 0 11.2 2.86 22.2 8.27 32 5.14 9.27 12.06 17.42 20.36 24l-4.6 30.6c-.48 3.15 1.68 6.1 4.82 6.57 1.3.2 2.64-.05 3.78-.72L157 153.2c4.96 1.48 10 2.62 15.13 3.4 6.06.94 12.18 1.4 18.32 1.4 24.68.34 48.75-7.66 68.32-22.7 17.88-14.37 28.96-34.25 28.96-56.3s-11.1-41.95-29-56.27zm-7.2 103.6c-17.55 13.35-39.08 20.4-61.12 20-5.53 0-11.05-.4-16.52-1.24-5.42-.82-10.77-2.07-16-3.73-1.55-.5-3.23-.3-4.64.52l-22.84 13.47 3.32-22c.32-2.15-.6-4.3-2.36-5.56-8.2-5.93-15.02-13.57-20-22.4-4.44-8.08-6.78-17.16-6.8-26.4 0-18.4 9.4-35.1 24.6-47.27 17.55-13.35 39.08-20.4 61.12-20 22.05-.4 43.58 6.65 61.12 20C266.6 43.73 276 60.6 276 79c0 18.4-9.27 35.13-24.47 47.33zM288.44 177.13c-22.56-.02-40.86 18.25-40.88 40.8 0 10.83 4.28 21.22 11.93 28.88 7.63 7.7 18.02 12.02 28.87 12 22.55.03 40.85-18.24 40.87-40.8s-18.25-40.85-40.8-40.87zm20.64 61.5c-11.4 11.42-29.93 11.43-41.35 0-5.48-5.47-8.56-12.9-8.57-20.66 0-7.76 3.07-15.2 8.56-20.68 11.42-11.43 29.93-11.44 41.36-.02 11.42 11.42 11.42 29.93 0 41.35z" class="active-path"/><circle cx="148.245" cy="77.85" r="6.56" fill="#F6F5F5" class="active-path"/><path fill="#F6F5F5" d="M219.22 210.83c-7.65-7.63-18-11.9-28.82-11.9-10.84 0-21.23 4.3-28.88 12-15.9 15.96-15.86 41.8.1 57.7 15.97 15.9 41.8 15.86 57.7-.1s15.87-41.8-.1-57.7zm-28.82 58.2c-16.15 0-29.24-13.1-29.24-29.24s13.1-29.24 29.25-29.24c7.77 0 15.2 3.1 20.68 8.57 5.5 5.48 8.58 12.92 8.56 20.68 0 16.16-13.1 29.25-29.24 29.24z" class="active-path"/></svg>