<svg xmlns="http://www.w3.org/2000/svg" width="512" height="512" viewBox="0 0 480.049 480.049" enable-background="new 0 0 480.049 480.049"><path fill="#ffa800" d="M464.02 16.05h16v16h-16zM448.02.05h16v16h-16zM432.02 16.05h16v16h-16zM448.02 32.05h16v16h-16zM400.02 16.05h16v16h-16zM384.02 176.05h16v16h-16zM416.02 176.05h16v16h-16zM400.02 160.05h16v16h-16zM400.02 192.05h16v16h-16zM88.03 152.05h16v16h-16zM72.03 136.05h16v16h-16zM56.02 152.05h16v16h-16zM72.03 168.05h16v16h-16zM24.02 152.05h16v16h-16zM.03 48.05h16v16h-16zM32.02 48.05h16v16h-16zM16.02 32.05h16v16h-16zM16.02 64.05h16v16h-16zM112.03.05h16v16h-16zM430.64 375.97c-3.4-9.56-12.46-15.94-22.6-15.92h-19.37l-28.64-50.13v-85.87c0-17.67-14.33-32-32-32v-104c1.62-46.98-35.15-86.38-82.13-88-1.96-.07-3.92-.07-5.87 0-55 0-86.4 45.18-88 87.7 0 .1.05.2.05.3h-.05v104c-17.68 0-32 14.33-32 32v85.87l-28.65 50.13H72.03c-13.23-.03-23.97 10.67-24 23.9-.02 10.14 6.36 19.2 15.93 22.6-11.56 13.07-10.34 33.02 2.72 44.58 4.72 4.17 10.6 6.84 16.83 7.66l155.45 21.18c.72.1 1.44.1 2.16 0l155.45-21.2c17.3-2.25 29.48-18.1 27.22-35.4-.82-6.24-3.5-12.1-7.66-16.82 12.47-4.44 18.97-18.13 14.54-30.6zM240.04 16.05c38-1.76 70.22 27.6 72 65.6.1 2.14.1 4.27 0 6.4h-16c-22.1-.02-40-17.92-40-40 0-4.42-3.6-8-8.02-8-2.12 0-4.15.85-5.65 2.35-19.83 19.9-45.62 32.8-73.45 36.72 4.4-35.95 34.9-63 71.1-63.07zm-16 184v-34.2c5.2 1.42 10.58 2.16 16 2.2 5.4-.04 10.78-.8 16-2.26v34.25c0 4.42 3.57 8 8 8h16v10.23l-40 13.34-40-13.34v-10.23h16c4.4 0 8-3.58 8-8zM177.55 93.8c23.76-4.4 46.03-14.66 64.8-29.86 7.07 23.76 28.88 40.06 53.67 40.1h3.5c-10 26.85-35.37 48-59.5 48-27.8 0-55.85-26.92-62.47-58.24zm94.47 98.25v-32.68c17.66-9.94 31.68-25.27 40-43.75v76.43h-40zm-104-76.4c8.27 18.5 22.3 33.87 40 43.77v32.63h-40v-76.4zm16 92.4v16c0 3.44 2.2 6.5 5.47 7.6l48 16c1.64.55 3.42.55 5.06 0l48-16c3.27-1.1 5.47-4.16 5.47-7.6v-16h21.75l-36 144h-83.5l-36-144h21.75zm11.68 160h88.65l32.14 37.5-76.47 10.43-76.47-10.4 32.15-37.53zm-50.97 34.93l-14.76-2 50.12-55.7 3.2 12.7-38.57 45zm152.1-45l3.2-12.7 50.12 55.7-14.8 2-38.52-45zm-232.8 26.07c0-4.42 3.58-8 8-8h24c2.86 0 5.5-1.52 6.94-4l32-56c.7-1.22 1.06-2.6 1.06-4v-88c0-6.53 3.97-12.4 10.04-14.85l14.67 58.68 14.66 58.68-58.93 65.5H72.03c-4.42 0-8-3.6-8-8zm176 79.93L85.68 442.92c-8.64-1.14-14.72-9.06-13.58-17.7 1.04-7.88 7.77-13.75 15.7-13.7.72 0 1.43.04 2.14.14l56.9 7.76 90.4 12.33 42.8 26.77-40 5.46zm154.35-21.06l-89.55 12.22L263 429l70.17-9.6 56.88-7.76c8.63-1.22 16.6 4.8 17.82 13.43.1.74.16 1.48.16 2.22-.03 7.87-5.85 14.53-13.65 15.62zm13.65-50.87H363.6l-58.96-65.5 14.67-58.67L334 209.2c6.07 2.43 10.05 8.3 10.05 14.85v88c0 1.4.36 2.78 1.05 4l32 56c1.43 2.48 4.08 4 6.95 4h24c4.42 0 8 3.58 8 8s-3.58 8-8 8z" class="active-path"/></svg>