<svg xmlns="http://www.w3.org/2000/svg" width="512" height="512" viewBox="0 0 512 512.00145"><g fill="#ffa800"><path d="M235.8 448.06c2.64 0 5.2-1.06 7.08-2.93 1.86-1.86 2.93-4.44 2.93-7.07s-1.06-5.2-2.92-7.07c-1.86-1.87-4.44-2.94-7.07-2.94s-5.2 1.07-7.06 2.93c-1.87 1.85-2.93 4.43-2.93 7.06s1.07 5.2 2.94 7.07c1.86 1.87 4.44 2.93 7.07 2.93zm0 0M501.97 492h-194.3l-16.07-20.3c-1.45-1.84-2.25-4.13-2.25-6.47v-108.3c0-14.02-6.83-27.24-18.26-35.36L246.6 304.2l38.88-58.12c11.14-16.65 14.52-37.53 9.38-56.76l76.92-119.8c.16-.23.3-.48.43-.73 6.24-11.84 7.5-25.4 3.54-38.17-3.95-12.77-12.64-23.24-24.48-29.47-4.66-2.46-10.42-.9-13.18 3.6l-42.6 69.08c-1.66-1.16-3.4-2.2-5.25-3.16-2.75-1.4-5.58-2.52-8.45-3.35-.07-.68-.2-1.37-.43-2.04l-.9-2.78c-5.82-17.83-25.04-27.6-42.87-21.8-8.63 2.8-15.66 8.8-19.77 16.9-4.13 8.1-4.84 17.3-2.03 25.94l3.94 12.1c.47 1.47 1.26 2.73 2.25 3.78l-2.6 5.1c-5.8 11.3-6.87 24.2-2.97 36.3 1.75 5.43 4.4 10.4 7.83 14.8-9.73 3.8-18.25 10.66-24.1 20l-45.72 73.2c-.53.5-9.2 13.6-9.2 13.6-11.23 17.2-14.24 38.33-8.27 58 5.97 19.65 20.24 35.52 39.16 43.55l49.64 21.06V405c0 5.52 4.48 10 10 10 5.53 0 10-4.48 10-10v-26.55c0-4.02-2.4-7.65-6.1-9.2l-55.73-23.67c-13.45-5.7-23.6-17-27.84-30.97s-2.1-29 5.9-41.22l2.08-3.2 95.4 67.7c6.17 4.38 9.85 11.5 9.85 19.05v108.3c0 6.82 2.33 13.52 6.56 18.88l6.26 7.9H261.8c-8.82 0-16-7.18-16-16 0-5.52-4.47-10-10-10-5.52 0-10 4.48-10 10 0 5.75 1.36 11.18 3.77 16H10c-5.52 0-10 4.48-10 10s4.48 10 10 10h491.97c5.52 0 10-4.48 10-10s-4.48-10-10-10zM248.35 150.37c-6.15-3.4-10.7-8.94-12.87-15.66-2.25-7-1.64-14.5 1.72-21.04l6.8-13.23c3.36-6.56 9.08-11.4 16.1-13.67 7-2.26 14.48-1.65 21.04 1.72 1.37.7 2.65 1.53 3.86 2.43zM235.68 66.7c1.7-3.34 4.6-5.82 8.14-6.98 6.45-2.1 13.33.76 16.54 6.45-9.32 1.63-18.1 6.03-25 12.76l-.52-1.56c-1.15-3.56-.86-7.35.84-10.68zm-18.53 119.55c6.87-11 19.93-16.28 32.5-13.16 3.6.88 7.3-.28 9.74-2.9 1.18-1.08 2.12-2.44 2.7-4l87.38-141.76c3.3 3.36 5.75 7.5 7.2 12.1 2.32 7.55 1.63 15.55-1.95 22.57l-79.18 123.3c-1.66 2.58-2.04 5.8-1.03 8.7 5.07 14.6 2.96 31-5.64 43.86l-38.58 57.67-55.16-39.15zm0 0" class="active-path"/></g></svg>