<svg xmlns="http://www.w3.org/2000/svg" width="512" height="512" viewBox="0 0 313.232 313.232" enable-background="new 0 0 313.232 313.232"><path fill="#ffa800" d="M128.5 230.42c0 4.98-4.04 9-9 9s-9-4.02-9-9c0-15.26-12.43-27.68-27.7-27.68-4.96 0-9-4.03-9-9s4.04-9 9-9c25.2 0 45.7 20.5 45.7 45.68zm184.73-73.8c0 86.35-70.26 156.6-156.6 156.6-14.6 0-29.03-2-42.95-5.96-9.55 3.85-19.97 5.97-30.87 5.97-45.65 0-82.8-37.15-82.8-82.8 0-10.9 2.12-21.33 5.97-30.87C2 185.64 0 171.2 0 156.6 0 70.27 70.26 0 156.62 0c86.35 0 156.6 70.26 156.6 156.62zm-165.6 73.8c0-35.73-29.1-64.8-64.82-64.8-35.73 0-64.8 29.07-64.8 64.8 0 35.74 29.07 64.8 64.8 64.8 35.74 0 64.82-29.06 64.82-64.8zm147.6-73.8C295.23 80.18 233.05 18 156.63 18S18 80.18 18 156.62c0 6.88.5 13.72 1.5 20.48 15.2-18.02 37.94-29.48 63.3-29.48 45.67 0 82.82 37.14 82.82 82.8 0 25.37-11.47 48.1-29.48 63.3 6.75 1 13.6 1.5 20.48 1.5 76.43 0 138.6-62.17 138.6-138.6zM156.63 42.8c-4.98 0-9 4.02-9 9 0 4.96 4.02 9 9 9 52.82 0 95.8 42.98 95.8 95.81 0 5 4.04 9.02 9 9.02s9-4.03 9-9c0-62.77-51.05-113.83-113.8-113.83z" class="active-path"/></svg>