<svg xmlns="http://www.w3.org/2000/svg" width="512" height="512" viewBox="0 0 511 512"><g fill="#ffa800"><path d="M173.3 447.93c2.63 0 5.2-1.07 7.07-2.93 1.86-1.86 2.93-4.44 2.93-7.07s-1.07-5.2-2.93-7.07c-1.86-1.86-4.44-2.93-7.07-2.93s-5.2 1.07-7.07 2.93-2.93 4.44-2.93 7.07 1.07 5.2 2.93 7.07c1.86 1.86 4.44 2.93 7.07 2.93zm0 0M502.47 492h-48.1l-18.28-32.67V370.2c0-21.02-13.5-39.34-33.58-45.57l-76.72-23.8v-81.24c0-7.55-2.23-14.66-6.14-20.63 21.77-7.5 37.46-28.18 37.46-52.47 0-28.93-22.26-52.76-50.56-55.27V50.06C306.56 22.46 284.1 0 256.5 0c-5.52 0-10 4.48-10 10v79.82c-.05 0-.1 0-.14 0-8.7-.2-16.92 3.07-23.18 9.1-6.26 6.04-9.8 14.15-9.95 22.84-.33 17.95 14 32.8 31.95 33.14h.6c-1.75 16.37-6.6 32.53-14.3 47.4-2.76 5.3-4.22 11.3-4.22 17.3v86l-24.1 43.4-129.05 81.15c-12.27 7.72-19.6 20.98-19.6 35.5V492h-44c-5.52 0-10 4.48-10 10s4.48 10 10 10h491.97c5.52 0 10-4.48 10-10s-4.48-10-10-10zM337.12 146.5c0 17.9-13.32 32.74-30.56 35.16v-70.32c17.24 2.42 30.56 17.26 30.56 35.16zM266.5 21.7c11.68 4.14 20.06 15.3 20.06 28.36V193.3c0 4.35 2.82 8.2 6.98 9.52 7.33 2.33 12.26 9.07 12.26 16.77v78.6h-58.53v-78.6c0-2.86.66-5.58 1.95-8.1 11.3-21.78 17.28-46.02 17.28-70.1zm-29.76 109.36c-2.33-2.4-3.58-5.58-3.5-8.94.05-3.35 1.4-6.48 3.82-8.8 2.36-2.27 5.44-3.52 8.7-3.52.15 0 .3 0 .43 0 .1 0 .2 0 .3 0v25.12l-.95-.02c-3.35-.06-6.48-1.42-8.8-3.84zM151.77 448.5c-2.43-4.95-8.42-7-13.38-4.56L94.07 465.7c-.66.33-1.28.73-1.85 1.2L74.5 481.12v-15.5c0-7.58 3.83-14.5 10.25-18.55L216 364.58c1.4-.9 2.6-2.15 3.4-3.62l23.75-42.77h53.97l-28.9 43.35c-12.05 18.1-28.74 32.73-48.26 42.32l-20.7 10.17c-4.96 2.43-7 8.42-4.57 13.38 2.43 4.96 8.42 7 13.38 4.57l20.7-10.18c22.68-11.14 42.08-28.15 56.1-49.18l7.85-11.8 81.77 30.13v92.44c0 3 .46 5.9 1.32 8.6H92.9l11-8.84 43.3-21.27c4.96-2.44 7-8.44 4.57-13.4zM403.1 492c-4.75 0-8.6-3.85-8.6-8.6V384c0-4.2-2.6-7.94-6.54-9.38l-83.83-30.88L315 327.4l4.98-7.44 76.6 23.77c11.67 3.62 19.5 14.25 19.5 26.47v91.74c0 1.7.44 3.4 1.28 4.88l14.1 25.18zm0 0" class="active-path"/></g></svg>