<svg xmlns="http://www.w3.org/2000/svg" width="512" height="512"><path fill="#fff" d="M488.73 279.27c-7 0-11.64 4.66-11.64 11.64V442.2c0 6.98-4.66 11.64-11.65 11.64H46.55c-7 0-11.64-4.66-11.64-11.64V290.9c0-6.97-4.65-11.63-11.63-11.63s-11.63 4.66-11.63 11.64V442.2c0 19.78 15.12 34.9 34.9 34.9h418.92c19.78 0 34.9-15.12 34.9-34.9V290.9c0-6.97-4.65-11.63-11.63-11.63zM477.1 116.36H34.9c-19.77 0-34.9 15.13-34.9 34.9v74.5c0 16.28 11.64 30.24 26.76 33.73l182.7 40.72v37.23c0 7 4.65 11.64 11.63 11.64h69.8c7 0 11.65-4.67 11.65-11.65v-37.23l182.7-40.73c15.1-3.5 26.75-17.46 26.75-33.75v-74.48c0-19.78-15.13-34.9-34.9-34.9zM279.26 325.82h-46.54v-46.55h46.54v46.55zm209.46-100.07c0 5.8-3.5 10.47-9.3 11.63l-176.9 39.57v-9.3c0-7-4.64-11.65-11.62-11.65h-69.8c-7 0-11.65 4.65-11.65 11.64v9.3L32.58 237.38c-5.82-1.16-9.3-5.82-9.3-11.63v-74.48c0-6.98 4.65-11.63 11.63-11.63h442.2c6.97 0 11.63 4.65 11.63 11.63v74.47zM314.18 34.9H197.82c-19.78 0-34.9 15.14-34.9 34.92v11.63c0 7 4.64 11.64 11.63 11.64s11.63-4.67 11.63-11.65V69.82c0-6.98 4.66-11.64 11.64-11.64h116.36c6.98 0 11.64 4.66 11.64 11.64v11.63c0 7 4.65 11.64 11.63 11.64 7 0 11.64-4.67 11.64-11.65V69.82c0-19.78-15.14-34.9-34.92-34.9z" class="active-path"/></svg>