<svg xmlns="http://www.w3.org/2000/svg" width="512" height="512" viewBox="0 0 372.96 372.96" enable-background="new 0 0 372.96 372.96"><path fill="#F6F5F5" d="M186.48 0C83.48 0 0 83.5 0 186.48s83.5 186.48 186.48 186.48 186.48-83.5 186.48-186.48C372.83 83.55 289.42.13 186.48 0zm8 356.56v-32.8c0-4.42-3.58-8-8-8s-8 3.58-8 8v32.8c-87.72-4.2-157.9-74.36-162.08-162.08h32.8c4.42 0 8-3.58 8-8s-3.58-8-8-8H16.4C20.6 90.76 90.76 20.58 178.48 16.4v32.8c0 4.42 3.58 8 8 8s8-3.58 8-8V16.4c87.72 4.2 157.9 74.36 162.08 162.08h-32.8c-4.42 0-8 3.58-8 8s3.58 8 8 8H356.64c-4.2 87.75-74.4 157.93-162.16 162.08zM270.88 260.88l-76.4-77.68v-80.72c0-4.42-3.58-8-8-8s-8 3.58-8 8v84c0 2.1.84 4.1 2.32 5.6l78.64 80c3.1 3.16 8.16 3.2 11.32.12 3.16-3.1 3.2-8.16.12-11.32z" class="active-path"/></svg>