<svg xmlns="http://www.w3.org/2000/svg" width="512" height="512" viewBox="0 0 480 480"><g fill="#fff"><path d="M240 0C107.45 0 0 107.45 0 240s107.45 240 240 240 240-107.45 240-240C479.85 107.52 372.48.15 240 0zm0 464C116.3 464 16 363.7 16 240S116.3 16 240 16s224 100.3 224 224c-.14 123.65-100.35 223.86-224 224zm0 0M240 48C133.96 48 48 133.96 48 240s85.96 192 192 192 192-85.96 192-192c-.13-106-86-191.88-192-192zm8 367.8V392c0-4.42-3.58-8-8-8s-8 3.58-8 8v23.8C141.14 411.56 68.44 338.86 64.2 248H88c4.42 0 8-3.58 8-8s-3.58-8-8-8H64.2C68.44 141.14 141.14 68.44 232 64.2V88c0 4.42 3.58 8 8 8s8-3.58 8-8V64.2c90.86 4.24 163.56 76.94 167.8 167.8H392c-4.42 0-8 3.58-8 8s3.58 8 8 8h23.8c-4.24 90.86-76.94 163.56-167.8 167.8zm0 0M344 232h-81.47c-3.38-9.55-12.4-15.96-22.53-16-3.57 0-7.1.83-10.3 2.4l-.04-.07-88-88c-3.14-3.03-8.13-3-11.22.1-3.08 3.08-3.13 8.07-.1 11.2l88 88 .07.06c-1.56 3.2-2.38 6.73-2.4 10.3-.02 11.68 8.38 21.66 19.9 23.64 11.5 1.98 22.75-4.63 26.63-15.64H344c4.42 0 8-3.58 8-8s-3.58-8-8-8zm-104 16c-4.42 0-8-3.58-8-8s3.58-8 8-8 8 3.58 8 8-3.58 8-8 8zm0 0" class="active-path"/></g></svg>