<svg xmlns="http://www.w3.org/2000/svg" width="512" height="512" viewBox="0 0 24.432 24.432" enable-background="new 0 0 24.432 24.432"><g fill="#ed9d04"><path d="M6.42 9.3c1.77 0 3.2-1.43 3.2-3.2 0-1.1.4-2.12-.46-2.7-.5-.35-2.76-.5-3.42-.5-.8 0-1.82.63-2.38 1.1-.7.6-.15 1.1-.15 2.1 0 1.77 1.45 3.2 3.22 3.2zM4.2 5.78c.57-.1.97.1.97.1l1-.5s-.5.73-.06.5c1-.35 2.13-.2 2.7-.1.02.13.04.25.04.4 0 1.3-1.05 2.38-2.35 2.38s-2.35-1.07-2.35-2.4c0-.13 0-.25.04-.38zM22.07 5.64c-.02-.18-.03-.36-.07-.54-.13-1.12-1.14-3.4-4.02-3.34-2.5.06-3.04 1.93-3.17 3.07-.07.28-.13.58-.15.88-3.24.58-2.88 3.86-.9 3.92-.2-1.72.63-2.75.94-3.08.28 1.77 1.8 3.13 3.66 3.13 1.76 0 3.23-1.22 3.62-2.86.3.55.8 1.64.7 2.82 3.1-.03 1.57-3.6-.6-3.98zm-3.7 2.98c-1.46 0-2.65-1.17-2.68-2.62.52-.2.92-1.12.92-1.12s.3.1.3 1.15c.56.2 1.52-1.6 1.52-1.6v1.4c.6.18 2.52-.04 2.52-.04l.07.05c0 .03 0 .06 0 .1 0 1.46-1.2 2.67-2.67 2.67zM19.14 9.77h-2.89L12.4 14.4 8.68 9.84H4.44L0 14.7l.93.96 3.18-2.7v5.24h.64v4h-.4v.47h1.84V18.2h.7v4.47h1.84v-.47h-.4v-4h.77v-5.15l2.53 2.6 1.03-.25.58.14 2.87-3.3.18 1.3-2.67 4.6h3.1v4h-.42v.47h1.85v-4.46h.7v4.47h1.83v-.46h-.4v-4h2.4l-2.37-4.6.12-1.6 2.25 3.02 1.5-.37-3.58-4.83z" class="active-path"/></g></svg>