<svg xmlns="http://www.w3.org/2000/svg" width="512" height="512" viewBox="0 0 978.673 978.673" enable-background="new 0 0 978.673 978.673"><g fill="#FCFBFB"><path d="M64.13 214.12c35.6 82.8 95.7 164.7 179.8 200 9.6 4 20.5 7 31.7 9.5 22.4-33.4 48.1-60.5 78.2-82.7 25.9-19 53-33.9 80.9-45.6-8-5.6-16.4-10.7-25.2-15.3-35-18.3-72.9-34.4-109.8-51.7 34.7 9.4 74.5 12.9 107.7 25 20.7 7.6 39.8 18.1 57.6 30.6 53.1-18.1 108.6-26.8 164-33.4-44.9-74.6-140.7-134.5-212.9-161.6-75.4-28.3-160.8-31.8-244.7-40.5-51.4-5.3-107.3-24.5-148.2-46.9-9.3-5.1-19.2 3.4-16 13.7 20.1 64.3 30.3 137.1 56.9 198.9zM950.63 204.32c-94.6 51.4-203.1 57.7-309.4 69.9-51.9 6-103.3 13.4-152.2 28.2-10.6 3.2-21.2 6.8-31.6 10.8-30.9 11.8-60.7 27.3-88.8 48-26.4 19.4-48 42.4-66.2 67.7-29 40.4-49.2 86.9-65.8 135.2-30.3 87.7-44.2 180.9-41.5 273.6 1.1 37.6 1.7 76.7 11 113.4 2.1 8.1 4.1 18.4 10.4 24.4 8.2 7.9 22.9-.2 19.6-11.7-23.8-81.1-9-175.9 23.9-253.4 37.8-89.1 110.8-142.1 200-174.4 23.7-8.6 47.9-16.1 72.5-23.2.5-.2 1-.2 1.5-.2 4.9 0 7 7.2 1.9 9.5-29 13.1-57.8 26.3-85.2 40.6-134.2 70-192.8 233-142.5 233 4.1 0 8.9-1.1 14.4-3.4 77.6-32.1 169.8-32.4 255.1-48.2 30-5.5 59.2-13 86.6-24.4 108.8-45.4 186.6-134.2 232.9-241 34.5-79.7 47.9-173.8 74-256.6 3.4-10.6-4.1-19.7-13.3-19.7-2.3-.1-4.8.5-7.3 1.9z" class="active-path"/></g></svg>