<svg xmlns="http://www.w3.org/2000/svg" width="512" height="512" viewBox="0 0 512.001 512.001" enable-background="new 0 0 512.001 512.001"><path fill="#fff" d="M175.84 404.8c-4.14 0-7.5 3.37-7.5 7.5v32.08c0 4.14 3.36 7.5 7.5 7.5 4.14 0 7.5-3.36 7.5-7.5V412.3c0-4.13-3.36-7.5-7.5-7.5zM336.16 404.8c-4.14 0-7.5 3.37-7.5 7.5v32.08c0 4.14 3.36 7.5 7.5 7.5 4.14 0 7.5-3.36 7.5-7.5V412.3c0-4.13-3.36-7.5-7.5-7.5zM115.06 245.28c-17.4-8.7-50.07-8.8-51.45-8.8-4.13 0-7.5 3.35-7.5 7.5 0 4.13 3.37 7.5 7.5 7.5 8.45 0 32.93 1.3 44.75 7.22 1.08.54 2.23.8 3.35.8 2.75 0 5.4-1.53 6.72-4.15 1.85-3.7.35-8.2-3.36-10.07zM39.56 388.78c-4.14 0-7.5 3.36-7.5 7.5v48.1c0 4.14 3.36 7.5 7.5 7.5 4.15 0 7.5-3.36 7.5-7.5v-48.1c0-4.14-3.35-7.5-7.5-7.5zM494.56 360.77L464.2 345.6c-.2-.1-.3-.28-.3-.47v-15.27c12.47-8.58 21.3-22.16 23.5-38.08 5.6-9.7 8.57-20.64 8.57-31.77 0-20.75-10-39.2-25.42-50.83.9-3 1.37-6.1 1.37-9.28 0-19.62-17.75-35.57-39.56-35.57s-39.57 15.95-39.57 35.56c0 3.16.45 6.27 1.36 9.28-9.2 6.93-16.45 16.3-20.82 27.12-1.86-18.27-3.8-39.86-5.65-65.02-2.46-33.2-14.4-61.23-34.53-81.06-19.98-19.7-46.67-30.1-77.17-30.1s-57.2 10.4-77.17 30.1c-20.13 19.83-32.07 47.87-34.52 81.06-.64 8.8-1.3 17.16-1.96 25.1h-70.7c-26.25 0-47.6 21.36-47.6 47.6v.44c0 6.1 1.45 12.23 4.2 17.7l3.82 7.68v12.24c0 19.4 9.57 36.82 24.05 47.3v10.83c0 1.4-.92 2.63-2.26 3l-30.96 8.85C9.4 355.88 0 368.35 0 382.36v62.02c0 4.14 3.36 7.5 7.5 7.5s7.5-3.36 7.5-7.5v-62.02c0-7.35 4.94-13.9 12-15.9l30.97-8.86c1.1-.32 2.17-.75 3.18-1.27l19 19v69.05c0 4.14 3.37 7.5 7.5 7.5 4.15 0 7.5-3.36 7.5-7.5v-69.04l19.15-19.14c2.56 1.25 5.1 2 6.98 2.52l7.6 2.17c-10.3 7.32-16.65 19.27-16.65 32.22v51.26c0 4.14 3.35 7.5 7.5 7.5 4.14 0 7.5-3.36 7.5-7.5v-51.26c0-9.72 5.74-18.54 14.64-22.47l42.88-18.94c13.43 26.92 40.9 44.07 71.25 44.07 30.47 0 57.84-17.1 71.27-44.05l42.86 18.93c8.9 3.93 14.65 12.75 14.65 22.47v51.26c0 4.14 3.35 7.5 7.5 7.5 4.14 0 7.5-3.36 7.5-7.5v-51.26c0-9.6-3.5-18.63-9.48-25.66l11.6-5.8 8.72 8.28c6.1 5.8 13.92 8.7 21.74 8.7 7.82 0 15.64-2.9 21.73-8.7l8.7-8.28 25.05 12.53c5.65 2.8 9.15 8.48 9.15 14.8v55.38c0 4.14 3.36 7.5 7.5 7.5 4.14 0 7.5-3.36 7.5-7.5v-55.4c0-12.02-6.68-22.83-17.44-28.2zm-62.2-181.44c13.54 0 24.56 9.22 24.56 20.56 0 .46-.04.93-.08 1.4-7.54-3.16-15.8-4.9-24.48-4.9s-16.95 1.75-24.5 4.9c-.03-.47-.07-.94-.07-1.4 0-11.35 11-20.57 24.56-20.57zm-344.7 182.3l-17.1-17.1c.37-1.4.55-2.86.55-4.36V337c4.73 1.56 9.7 2.47 14.86 2.63.57.02 1.15.02 1.72.02 5.7 0 11.24-.85 16.53-2.5v3.02c0 1.62.18 3.1.47 4.45l-17 17zm-1.25-37c-21.7-.65-39.34-19.75-39.34-42.6v-14c0-1.17-.27-2.32-.8-3.36l-4.62-9.26c-1.7-3.4-2.6-7.18-2.6-10.98v-.44c0-17.97 14.62-32.58 32.6-32.58h64.63v31.13c0 5.03-1.18 10.07-3.44 14.57l-3.78 7.57c-.52 1.04-.8 2.2-.8 3.35v16.04c0 11.07-4.37 21.42-12.32 29.13-7.95 7.7-18.44 11.77-29.52 11.43zm62.7 26.44l-23.7-6.77c-6.2-1.77-6.2-2.46-6.2-4.13v-10.33c2.53-1.75 4.93-3.7 7.18-5.88 1.5-1.47 2.92-3 4.24-4.6 1.2 2.43 3.05 4.56 5.44 6.1 6 3.9 17.35 10.37 34.04 16.33l-21 9.26zm106.9 29.7c-24.4 0-46.5-13.64-57.52-35.12l10.9-4.82c8.53-3.76 14.04-12.2 14.04-21.53v-18c10.08 4.06 21.07 6.3 32.58 6.3s22.5-2.24 32.58-6.3v18c0 9.32 5.5 17.77 14.03 21.53l10.92 4.82c-11 21.5-33.03 35.12-57.52 35.12zm65.03-48.2l-12.36-5.46c-3.1-1.36-5.1-4.42-5.1-7.8v-25.78c24.1-15.64 40.1-42.8 40.1-73.6v-14.06c0-9.14-3.9-17.76-10.67-23.65-15.07-13.1-49.18-35.97-108.32-41.88-4.1-.4-7.8 2.6-8.2 6.72-.42 4.12 2.6 7.8 6.7 8.2 55.02 5.5 86.25 26.35 99.98 38.3 3.5 3.03 5.5 7.53 5.5 12.32v14.07c0 40.06-32.6 72.66-72.66 72.66s-72.66-32.6-72.66-72.67v-6.28c0-2.88 1.6-5.52 4.27-7.06 9.4-5.4 21.76-15.4 27.42-32.4 1.3-3.93-.8-8.18-4.74-9.5-3.93-1.3-8.18.83-9.5 4.76-4.16 12.5-13.53 20.03-20.65 24.13-7.27 4.18-11.8 11.87-11.8 20.05v6.28c0 30.8 16 57.95 40.1 73.6v25.77c0 3.38-2 6.44-5.1 7.8l-12.36 5.47c-24.16-6.46-39.64-15.08-46.76-19.7-.13-.08-.2-.2-.17-.42 2.6-15.47 9.34-60.07 15.24-140.07 2.18-29.5 12.58-54.23 30.1-71.48 17.1-16.87 40.15-25.78 66.63-25.78s49.52 8.9 66.64 25.78c17.5 17.25 27.9 41.97 30.1 71.48 5.9 80 12.62 124.6 15.23 140.06.04.24-.04.35-.18.44-7.14 4.62-22.62 13.23-46.77 19.7zm79.78 12.56c0 .2-.1.37-.28.46l-23.5 11.74c-.27-.13-.54-.28-.82-.4l-34.3-15.15c16.68-5.97 28.02-12.43 34.04-16.33 5.17-3.35 7.85-9.44 6.82-15.53-.05-.33-.1-.7-.17-1.05 4.2 8.47 10.5 15.66 18.2 20.96v15.26zm42.95 13.94c-6.4 6.08-16.4 6.08-22.8 0l-6.97-6.62c1.18-2.2 1.83-4.7 1.83-7.33v-7.98c5.24 1.63 10.8 2.5 16.55 2.5 5.76 0 11.3-.87 16.55-2.5v7.98c0 2.62.65 5.12 1.82 7.33l-6.97 6.62zm-11.4-34.42c-20.76 0-38.1-15.55-40.34-36.17-.1-1.1-.47-2.17-1.05-3.12-4.72-7.67-7.2-16.44-7.2-25.35 0-26.8 21.8-48.6 48.6-48.6s48.62 21.8 48.62 48.6c0 5.17-.85 10.3-2.47 15.18-21.3-21.64-58.76-30.12-60.56-30.5-2.22-.5-4.54.04-6.3 1.46-1.8 1.43-2.82 3.58-2.82 5.85 0 .04-.34 5.24-5.82 10.72-2.93 2.93-2.93 7.68 0 10.6 2.93 2.93 7.68 2.93 10.6 0 4.23-4.2 6.7-8.5 8.16-12.1 12.62 3.74 38.8 13.2 50.57 29.83-3.34 19.33-20.08 33.6-39.97 33.6zM472.44 398.7c-4.15 0-7.5 3.35-7.5 7.5v38.18c0 4.14 3.35 7.5 7.5 7.5 4.14 0 7.5-3.36 7.5-7.5v-38.2c0-4.13-3.36-7.5-7.5-7.5z" class="active-path"/></svg>