<svg xmlns="http://www.w3.org/2000/svg" width="512" height="512" viewBox="0 0 612 612" enable-background="new 0 0 612 612"><g fill="#ed9d04"><path d="M506.7 353.53s-126.57-127.27-128.2-128.7c17.65-17.84 28.64-42.25 28.97-69.2 13-3.06 22.5-14.66 22.5-28.57 0-13.9-9.5-25.5-22.5-28.57-.06-2.6-.2-5.14-.42-7.66h7.7V78.6h-9.6c-1.3-5.8-3.06-11.4-5.3-16.8h14.9V49.58h-21.02C376.3 19.95 344.1 0 307.33 0c-36.8 0-69 19.95-86.4 49.58h-21.67V61.8h15.54c-2.24 5.4-4 11-5.3 16.82h-10.24v12.22h8.34c-.24 2.52-.37 5.08-.4 7.65-13 3.07-22.52 14.66-22.52 28.56 0 13.9 9.5 25.5 22.5 28.58.32 26.94 11.32 51.35 28.96 69.18-5.38 4.77-127.5 128.7-127.5 128.7-15.05 15.06-15.05 39.55 0 54.6 1 1 2.04 1.94 3.1 2.8-10.46 5.1-17.72 15.8-17.72 28.22v13.23h12.23v-13.23c0-10.57 8.6-19.16 19.16-19.16s19.17 8.6 19.17 19.16V608.3h12.22V439.14c0-8.4-3.35-16.03-8.74-21.67 5.55-1.83 10.77-4.93 15.18-9.34l36.73-36.72v82.37h31V612h152.7V453.77h31.03v-83.04l37.4 37.4c7.52 7.52 17.4 11.28 27.3 11.28s19.77-3.75 27.3-11.27c15.04-15.06 15.04-39.55 0-54.6zM307.3 242.37c-44.65 0-81.6-33.46-87.2-76.6 11.42 5.42 20.73 14.67 26.2 26.3l5.53 11.72 5.53-11.72c9.1-19.24 28.7-31.68 49.94-31.68 21.25 0 40.85 12.43 49.93 31.67l5.53 11.72 5.53-11.73c5.5-11.63 14.8-20.88 26.22-26.3-5.58 43.14-42.54 76.6-87.2 76.6zm-15.3 11.06l-27.17 22.6-4.48-33.16c9.72 5.18 20.38 8.82 31.66 10.56zm62.54-10.7l-4.5 33.3-27-22.68c11.22-1.78 21.83-5.43 31.5-10.62zm63.18-115.67c0 7.05-4.18 13.08-10.24 15.72v-31.43c6.06 2.64 10.24 8.66 10.24 15.7zM222.04 78.6c1.5-5.84 3.57-11.47 6.16-16.8h24.55V49.58h-17.3c15.94-22.57 42.2-37.35 71.87-37.35S363.26 27 379.2 49.58h-17.95V61.8h25.2c2.6 5.33 4.66 10.96 6.14 16.82h-31.35v12.22h33.53c.32 3.07.5 6.18.5 9.34v52.04c-13.2 4.77-24.56 13.55-32.5 25.05-12.47-17.96-33.22-29.1-55.46-29.1-22.23 0-42.98 11.14-55.45 29.1-7.94-11.5-19.28-20.27-32.5-25.05v-52.04c0-3.15.18-6.27.5-9.34h32.88V78.62h-30.7zm-25.13 48.46c0-7.04 4.18-13.05 10.25-15.7v31.42c-6.07-2.65-10.24-8.68-10.24-15.72zm-42.3 272.42c-10.3 10.3-27.04 10.3-37.32 0-10.28-10.28-10.28-27.02 0-37.3l10.3-10.3 38.05 36.57-11.04 11.03zm19.68-19.68l-38.04-36.58 67.92-67.92c-2.77 9.6-4.2 19.64-4.2 29.9v48.9l-25.68 25.7zm37.9-74.6c0-20.68 6.53-40.35 18.86-56.87 4.18-5.6 9-10.7 14.33-15.28.5.4.98.8 1.5 1.17l8.84 65.46 45.5-38.25v180.1h-89V305.2zm89.03 148.57V576.5c-7.45-7.35-17.7-11.87-29-11.87s-21.55 4.52-29 11.9V453.76h58zm-.7 146h-56.6c2.9-12.65 14.48-22.92 28.3-22.92s25.42 10.27 28.3 22.92zm13.64 0c2.9-12.65 14.47-22.92 28.3-22.92s25.4 10.27 28.3 22.92h-56.6zm57.3-23.25c-7.45-7.37-17.7-11.9-29-11.9s-21.55 4.53-29 11.9V453.77h58v122.75zm31.03-134.98h-89.03v-180.3l45.75 38.45 8.88-65.7c.4-.32.8-.65 1.22-.97 1.82 1.56 10.03 9.9 12.15 12.53 13.75 17.06 21.02 37.67 21.02 59.63v136.34zm7.64-167.3l67.35 67.33-36.58 38.05-26.18-26.18V305.2c0-10.54-1.58-20.98-4.6-30.96zm87.95 125.24c-10.3 10.3-27.03 10.28-37.3 0l-11.23-11.22 36.57-38.04 11.95 11.96c10.28 10.28 10.28 27 0 37.3z" class="active-path"/><circle cx="267.011" cy="138.697" r="14.44" class="active-path"/><circle cx="347.636" cy="138.697" r="14.44" class="active-path"/><path d="M341.4 315.5h42.78v12.22h-42.8z" class="active-path"/></g></svg>