<svg xmlns="http://www.w3.org/2000/svg" width="512" height="512" viewBox="0 0 64 64" enable-background="new 0 0 64 64"><g><path fill="#fff" d="M63.02 26.24c-.66-.8-1.6-1.26-2.57-1.26H59V23.8c0-2.1-1.83-3.82-4.08-3.82H53V17.8c0-1-.43-2-1.2-2.72-1.5-1.42-4.1-1.42-5.6 0-.77.72-1.2 1.72-1.2 2.74v10.16H19V17.82c0-1.02-.43-2.02-1.2-2.74-1.5-1.42-4.1-1.42-5.6 0-.76.72-1.2 1.72-1.2 2.74v2.16H8.85c-1 0-1.97.37-2.7 1.03-.73.7-1.15 1.63-1.15 2.6v1.38H3.56c-.97 0-1.9.46-2.58 1.26C.35 27 0 28 0 29.04v5.87c0 1.06.35 2.06.98 2.82.67.8 1.6 1.26 2.58 1.26H5v1.4c0 .96.42 1.9 1.16 2.57.72.67 1.68 1.03 2.7 1.03H11v2.17c0 1.02.43 2 1.2 2.73.75.7 1.74 1.1 2.8 1.1s2.06-.4 2.8-1.1c.77-.72 1.2-1.7 1.2-2.73V35.98h26v10.17c0 1.02.43 2 1.2 2.73.74.7 1.74 1.1 2.8 1.1 1.06 0 2.06-.4 2.8-1.1.77-.72 1.2-1.7 1.2-2.73v-2.17h1.92c2.25 0 4.08-1.7 4.08-3.82v-1.18h1.45c.97 0 1.9-.46 2.57-1.25.63-.76.98-1.75.98-2.8v-5.9c0-1.04-.35-2.04-.98-2.8zM3.56 36.98c-.38 0-.75-.2-1.04-.54-.33-.4-.52-.95-.52-1.53v-5.85c0-.57.2-1.13.52-1.53.3-.35.66-.54 1.04-.54H5v10H3.56zm5.3 5c-.5 0-1-.18-1.35-.5-.32-.3-.5-.7-.5-1.1v-16.8c0-.4.18-.8.5-1.1.36-.3.85-.5 1.35-.5H11v20H8.85zM17 46.15c0 .48-.2.93-.56 1.28-.76.7-2.12.7-2.87 0-.37-.35-.57-.8-.57-1.28V17.8c0-.46.2-.92.56-1.26.38-.36.9-.56 1.44-.56.54 0 1.06.2 1.44.56.36.34.56.8.56 1.28v28.33zm2-12.17v-4h26v4H19zm32 12.17c0 .48-.2.93-.56 1.28-.75.7-2.12.7-2.87 0-.37-.35-.57-.8-.57-1.28V17.82c0-.48.2-.94.56-1.28.38-.35.9-.56 1.44-.56.54 0 1.06.2 1.44.56.36.34.56.8.56 1.28v28.33zm6-6c0 1-.93 1.83-2.08 1.83H53v-20h1.92c1.14 0 2.08.82 2.08 1.83v16.36zm5-5.22c0 .57-.2 1.12-.5 1.52-.3.34-.67.53-1.05.53H59v-10h1.45c.38 0 .75.2 1.04.54.3.4.5.94.5 1.52v5.9z" class="active-path"/></g></svg>