<svg xmlns="http://www.w3.org/2000/svg" width="512" height="512" viewBox="0 0 79.537 79.536" enable-background="new 0 0 79.537 79.536"><path fill="#ed9d04" d="M28.96 12.2c2.02-.76 1.55-5.57 1.55-5.57C30.5 2.97 33.5 0 37.16 0c3.66 0 6.64 2.97 6.64 6.63 0 3.67-3 6.65-6.65 6.65-1.23 0-2.32-.44-3.3-1-2.75.2-6.13.4-4.9-.08zM49 44.6c.04 4.86-.2 8.38-.2 8.38H40.4L39 77.94c.02.87-.68 1.6-1.58 1.6-.87 0-1.6-.73-1.6-1.6l-1.35-24.96h-3.5l2.27-28-4.72 19.73c-.23 1-1.1 1.66-2.07 1.66-.15 0-.32-.03-.48-.06-1.14-.27-1.86-1.4-1.6-2.55 0 0 3.5-19.9 5.15-23.3 0-.02 0-.02 0-.02 1.66-3.4 1.9-5.44 8-5.44 4.5 0 7.25 3.98 8.95 9.35 4.97.93 8.75 5.28 8.75 10.53 0 4.3-2.55 8-6.23 9.7zm3.36-11.1c0-1.33-1.1-2.42-2.44-2.42-1.1 0-1.88.8-2.2 1.84-.28-1.02-1.06-1.84-2.17-1.84-1.35 0-2.44 1.1-2.44 2.43 0 2.84 4.63 5.35 4.63 5.35s4.63-2.5 4.63-5.34z" class="active-path"/></svg>