<svg xmlns="http://www.w3.org/2000/svg" width="512" height="512" viewBox="0 0 480.007 480.007" enable-background="new 0 0 480.007 480.007"><path fill="#F6F5F5" d="M479.43 267.58C475.88 243 456.57 223.7 432 220.16V205.6c0-40.12-30.5-72.8-68-72.8-36.42 0-66.9 31.7-68 70.64h.46l-.46.08v157.65c0 50.4-37.68 91.33-84 91.33s-84-40.98-84-91.33v-13.65c11.6 0 24-8.4 24-32V295.4c51.34-13.13 88-57.22 88-107.2v-16.68h-16l-.34-104.12c-.1-19.28-13.94-35.73-32.9-39.16-4.1-12.54-17.58-19.38-30.1-15.3-12.54 4.1-19.4 17.58-15.3 30.1 4.1 12.55 17.57 19.4 30.1 15.3 6.72-2.2 12.1-7.24 14.75-13.8 10.26 2.92 17.36 12.25 17.44 22.9L208 171.5h-16v16.93c-.64 27.82-19.3 52-46.05 59.68-14.3 4.56-29.68 4.56-44 .02-26.72-7.7-45.34-31.9-45.95-59.7v-16.9H32v-104c.05-10.82 7.32-20.27 17.76-23.08 4.87 12.4 18.86 18.5 31.26 13.63S99.52 39.2 94.65 26.8 75.77 8.33 63.38 13.2c-6.73 2.64-11.9 8.15-14.14 15C30.1 31.5 16.06 48.08 16 67.53v104H0v16.63C0 238.2 36.68 282.3 88 295.4v20.12c0 23.6 12.4 32 24 32v13.65c0 59.2 44.86 107.33 100 107.33s100-48.18 100-107.33V203.9c.8-30.36 24.14-55.07 52-55.07 28.67 0 52 25.48 52 56.8v14.52c-30.6 4.42-51.84 32.82-47.43 63.43S401.4 335.43 432 331s51.84-32.8 47.43-63.42zM168 43.52c-4.42 0-8-3.6-8-8s3.58-8 8-8 8 3.58 8 8-3.58 8-8 8zm-96-16c4.42 0 8 3.58 8 8s-3.58 8-8 8-8-3.6-8-8 3.58-8 8-8zM16 188.14v-.64h24v.93c.6 34.77 23.73 65.1 57.1 74.9 17.5 5.54 36.26 5.54 53.75 0 33.4-9.77 56.54-40.12 57.15-74.9v-.9h16v.63c0 44.5-34.3 83.66-81.6 93.13-11.1 2.2-22.48 2.77-33.75 1.65-3.7-.36-7.4-.92-11.05-1.67C50.3 271.8 16 232.65 16 188.15zm96 143.36c-7.2 0-8-11.2-8-16v-16.96c.64.08 1.3.1 1.94.17.8.1 1.6.17 2.4.24 3.8.33 7.6.56 11.45.57h.4c3.83 0 7.64-.23 11.4-.56.8-.07 1.65-.14 2.47-.23.63-.06 1.3-.08 1.92-.16v16.97c0 4.8-.8 16-8 16h-16zm312-16c-22.1 0-40-17.9-40-40 0-22.08 17.9-40 40-40s40 17.92 40 40c-.03 22.1-17.92 40-40 40zM424 251.5c-13.26 0-24 10.76-24 24s10.74 24 24 24 24-10.73 24-24-10.75-24-24-24zm0 32c-4.42 0-8-3.57-8-8s3.58-8 8-8 8 3.6 8 8-3.58 8-8 8z" class="active-path"/></svg>