<svg xmlns="http://www.w3.org/2000/svg" width="512" height="512" viewBox="-32 0 512 512.00155"><g fill="#FDFDFD"><path d="M429.14 157.5c-11.85 0-22.85 3.7-31.96 9.95V89.2c0-18.43-12.65-34.36-30.1-37.88-10.18-2.04-20.45.2-28.85 5.88v-2.45c0-50.8-29-54.75-37.9-54.75-20.3 0-36.77 16.06-37.72 36.13-6.03-3.5-13.28-5.57-21.08-5.57-20.9 0-37.9 14.7-37.9 32.77v42.4c-5.6-3.32-12.03-4.98-18.8-4.6-17.87.92-31.88 16.32-31.88 35.05v43.3l-.3-.3c-34.88-34.88-91.62-34.88-126.5 0-34.86 34.87-34.86 91.6 0 126.47l137 137c1.65 1.64 3.8 2.46 5.95 2.46s4.3-.82 5.95-2.46l3.15-3.16v53.02c0 10.75 8.75 19.5 19.5 19.5h163.14c10.75 0 19.5-8.75 19.5-19.5v-69.98l15.87-46.04h5.45c25.8 0 46.78-20.98 46.78-46.78V176.8c0-10.64-8.65-19.3-19.3-19.3zM300.34 16.84c18.3 0 21.05 23.75 21.05 37.9v135.6c-2.8-3.9-5.86-7.66-9.36-11.16-9.53-9.53-20.72-16.36-32.62-20.68V63.33c0-.42-.13-.8-.14-1.23V37.9c0-11.6 9.44-21.06 21.05-21.06zM241.5 47.4c10.94 0 20.16 6.73 20.9 14.9v91.86c-14-2.14-28.4-.97-41.96 3.54V63.33c0-8.63 9.65-15.92 21.06-15.92zm-55.8 70.54c4.76-.25 9.12 1.4 12.5 4.6 3.4 3.2 5.25 7.55 5.25 12.22v30.67c-6.38 3.76-12.44 8.28-17.92 13.75l-15.77 15.78v-58.78c0-9.6 7.15-17.78 15.93-18.24zM169.1 424.78L38.07 293.75c-28.3-28.3-28.3-74.36 0-102.66 14.15-14.16 32.74-21.24 51.33-21.24 18.6 0 37.18 7.08 51.33 21.23l22.4 22.4c3.17 3.16 8.76 3.16 11.92 0l22.42-22.4c28.3-28.3 74.35-28.32 102.66 0 28.3 28.3 28.3 74.35 0 102.65zm262.5-95.08c0 16.5-13.44 29.94-29.95 29.94h-20.6c-4.64 0-8.4 3.77-8.4 8.42 0 3.77 2.5 6.85 5.92 7.92l-14.6 42.4c-.32.87-.47 1.8-.47 2.74v71.4c0 1.45-1.2 2.64-2.66 2.64H197.7c-1.46 0-2.65-1.2-2.65-2.65v-69.86l117-116.98c20.33-20.35 28.72-48.13 25.32-74.68.52-1.1.86-2.28.86-3.58V88.44c0-6.35 2.82-12.3 7.74-16.3 4.98-4.1 11.3-5.63 17.8-4.3 9.6 1.93 16.57 10.92 16.57 21.37v96.46c-4.86 8.34-7.7 18.02-7.7 28.36v55.03c-13.52 4.55-43.02 18.5-50.37 55.25-.9 4.56 2.04 9 6.6 9.9 4.58.9 9-2.04 9.92-6.6 7.16-35.9 42.45-43.62 43.9-43.92 3.95-.8 6.78-4.25 6.78-8.26v-61.4c0-21.88 17.8-39.67 39.67-39.67 1.35 0 2.45 1.1 2.45 2.45v152.9zm0 0M283.63 283.84H245.6c-3.64 0-6.86 2.32-8 5.75l-8.65 25.93-16.15-51.08c-1.33-4.22-5.73-6.7-10-5.65l-27.47 6.6-14.4-43.2c-1.1-3.33-4.2-5.63-7.72-5.74-3.35-.1-6.72 1.98-8.06 5.24l-27.43 67.42-16.1-34.15c-1.32-2.8-4.08-4.66-7.2-4.8-3.08-.24-6.04 1.4-7.63 4.06L61.5 296.35c-2.4 4-1.1 9.16 2.9 11.55 3.97 2.4 9.15 1.1 11.54-2.88l17.16-28.6 17.57 37.25c1.42 3 4.32 5 7.85 4.82 3.34-.1 6.3-2.16 7.57-5.25l26.06-64.1 9.64 28.92c1.38 4.16 5.73 6.55 9.96 5.53l27.35-6.58 21.6 68.3c1.1 3.5 4.33 5.86 7.98 5.9h.06c3.63 0 6.85-2.33 8-5.77l14.92-44.77h31.97c4.65 0 8.42-3.77 8.42-8.43 0-4.64-3.77-8.4-8.42-8.4zm0 0" class="active-path"/></g></svg>