<svg xmlns="http://www.w3.org/2000/svg" width="512" height="512"><g fill="#117abb"><path d="M362.67 240h-53.34v-53.33c0-5.9-4.77-10.67-10.66-10.67h-85.34c-5.9 0-10.66 4.78-10.66 10.67V240h-53.34c-5.9 0-10.66 4.78-10.66 10.67V336c0 5.9 4.77 10.67 10.66 10.67h53.34V400c0 5.9 4.77 10.67 10.66 10.67h85.34c5.9 0 10.66-4.78 10.66-10.67v-53.33h53.34c5.9 0 10.66-4.78 10.66-10.67v-85.33c0-5.9-4.77-10.67-10.66-10.67zM352 325.33h-53.33c-5.9 0-10.67 4.78-10.67 10.67v53.33h-64V336c0-5.9-4.78-10.67-10.67-10.67H160v-64h53.33c5.9 0 10.67-4.77 10.67-10.66v-53.34h64v53.34c0 5.9 4.78 10.66 10.67 10.66H352v64zM450.57 112H341.33V81.47c0-24.34-20.16-44.14-44.94-44.14h-84.6c-23.84 0-41.13 18.56-41.13 44.14V112H61.43c-33.9.03-61.4 27.52-61.43 61.43v239.8c.04 33.92 27.52 61.4 61.43 61.44h389.14c33.9-.04 61.4-27.52 61.43-61.43v-239.8c-.04-33.92-27.52-61.4-61.43-61.44zM192 81.47c0-11.35 6.1-22.8 19.8-22.8h84.6c13 0 23.6 10.23 23.6 22.8V112H192V81.47zM490.67 413.2c0 22.15-17.95 40.1-40.1 40.13H61.43c-22.14-.02-40.07-17.96-40.1-40.1v-239.8c.03-22.14 17.96-40.07 40.1-40.1h389.14c22.14.03 40.07 17.96 40.1 40.1V413.2z" class="active-path"/></g></svg>