<svg xmlns="http://www.w3.org/2000/svg" width="512" height="512"><path fill="#117abb" d="M482.73 485.78l-22.65-132.6c-2.44-14.3-12.58-25.76-26.46-29.95l-61.1-18.43c-1.25-14.94-7.38-29.03-17.57-40.18-8.15-8.92-18.4-15.4-29.7-19 1.93-2.14 3.73-4.28 5.37-6.37 14.53-18.48 22.3-38.84 24.3-52.73h4.7c12.26 0 22.23-9.97 22.23-22.23v-11.4c0-8.2-4.6-15.6-11.52-19.45v-27.4c0-4.14-3.36-7.5-7.5-7.5s-7.5 3.36-7.5 7.5v30.76c-2.92.52-6.4 1.4-9.96 2.9-.37.13-.72.28-1.06.47-.8.37-1.6.75-2.4 1.2V80.93c0-16.7-13.58-30.27-30.28-30.27h-20.7c-7.13 0-14.1 2.48-19.63 7l-2.04 1.66c-3.73 3.05-8.44 4.73-13.26 4.73s-9.53-1.68-13.26-4.73l-2.03-1.66c-5.5-4.52-12.48-7-19.62-7h-20.7c-16.7 0-30.27 13.57-30.27 30.27v60.42c-.8-.44-1.6-.82-2.4-1.2-.34-.17-.7-.33-1.06-.46-3.57-1.5-7.05-2.38-9.97-2.9V59.03c0-24.27 19.75-44.02 44.03-44.02h110.6c24.28 0 44.03 19.75 44.03 44.03V70.8c0 4.15 3.36 7.5 7.5 7.5s7.5-3.35 7.5-7.5V59.04C370.33 26.48 343.85 0 311.3 0H200.7c-32.55 0-59.02 26.48-59.02 59.02v74.44c-6.93 3.84-11.53 11.25-11.53 19.44v11.4c0 12.25 9.97 22.22 22.23 22.22h4.72c1.97 13.9 9.75 34.25 24.28 52.73 1.64 2.1 3.44 4.22 5.37 6.37-25.98 8.25-44.93 31.6-47.28 59.18l-61.1 18.43c-13.87 4.2-24 15.66-26.45 29.95l-9.2 53.85c-.7 4.08 2.05 7.95 6.13 8.65 4.08.7 7.96-2.05 8.66-6.13l9.2-53.85c1.48-8.64 7.6-15.58 16-18.1l56.5-17.06v14.83c-12.94 2.38-23.96 11.28-28.5 23.6-1.2 3.28-1.95 6.7-2.22 10.2L103 439.24c-.4 5.28 1.43 10.54 5.03 14.43 3.6 3.88 8.7 6.1 13.98 6.1h9.36c4.14 0 7.5-3.34 7.5-7.5 0-4.13-3.36-7.48-7.5-7.48H122c-1.1 0-2.2-.48-2.97-1.3-.76-.83-1.15-1.95-1.06-3.08l5.46-70.1c.16-2.1.6-4.18 1.34-6.16 3.16-8.58 11.7-14.38 21.23-14.45h1.23c.06 0 .12 0 .17 0 9.27 0 17.48 5.25 20.94 13.43.97 2.3 1.56 4.7 1.75 7.2l5.46 70.1c.08 1.12-.3 2.24-1.07 3.06-.78.82-1.86 1.3-3 1.3h-9.34c-4.14 0-7.5 3.35-7.5 7.5 0 4.14 3.36 7.5 7.5 7.5h9.35c5.3 0 10.4-2.24 14-6.12 3.6-3.9 5.42-9.15 5-14.43l-5.46-70.1c-.32-4.1-1.3-8.1-2.9-11.88-4.93-11.65-15.5-19.76-27.93-21.95v-19.3l25.78-7.78c2.35 4.94 7 15.6 16.2 38.62 9.28 23.2 20.8 52.96 31.87 81.9.08.23.17.47.27.7 7.38 19.3 14.54 38.23 20.66 54.54 1.1 2.93 3.9 4.87 7.02 4.87 3.13 0 5.92-1.94 7.02-4.87 6.12-16.3 13.28-35.23 20.66-54.54.1-.23.2-.47.27-.7 11.05-28.92 22.58-58.65 31.85-81.86 9.22-23.04 13.87-33.72 16.22-38.66L357.8 316v44.3c-17.87 3.47-31.4 19.22-31.4 38.08 0 21.4 17.4 38.8 38.8 38.8s38.8-17.4 38.8-38.8c0-18.8-13.44-34.5-31.2-38.05v-39.8l56.5 17.06c8.4 2.52 14.52 9.46 16 18.1l22.65 132.6c.37 2.2-.2 4.36-1.65 6.06-1.44 1.7-3.46 2.65-5.7 2.65H51.4c-2.24 0-4.26-.93-5.7-2.64-1.43-1.7-2.02-3.85-1.64-6.05l7.47-43.75c.7-4.1-2.05-7.96-6.13-8.66-4.08-.7-7.95 2.04-8.65 6.12l-7.48 43.76c-1.1 6.54.7 13.2 4.97 18.25C38.52 509.1 44.77 512 51.4 512h409.2c6.63 0 12.88-2.9 17.16-7.97 4.27-5.06 6.08-11.7 4.97-18.25zm-127.3-333.7c4-1 7.2-.97 7.23-.97 1.3.03 2.55-.27 3.66-.86.34.83.53 1.73.53 2.66v11.4c0 3.98-3.24 7.23-7.23 7.23h-4.2V152.1zm-198.85 19.45h-4.2c-4 0-7.23-3.25-7.23-7.24v-11.4c0-.93.2-1.83.53-2.66 1.1.6 2.37.9 3.66.87.06.02 3.26 0 7.24 1v19.43zm15 8.4v-19.7c2.27.7 4.75.6 7.04-.36 3.94-1.64 6.48-5.46 6.48-9.72v-69.2c0-8.44 6.86-15.3 15.28-15.3h20.7c3.68 0 7.3 1.3 10.14 3.63l2.03 1.66c6.4 5.23 14.48 8.1 22.75 8.1s16.35-2.87 22.75-8.1l2.03-1.66c2.85-2.34 6.46-3.62 10.15-3.62h20.7c8.4 0 15.27 6.85 15.27 15.28v69.2c0 4.27 2.54 8.1 6.48 9.73 1.3.55 2.7.8 4.05.8 1.02 0 2.02-.14 3-.43v19.7c0 10.94-7.57 32.2-21.6 50.04-4.64 5.9-10.62 12.26-17.97 17.8-.23.16-.46.33-.67.5-11.4 8.43-26.05 14.88-44.2 14.88s-32.8-6.45-44.2-14.87c-.2-.2-.43-.36-.66-.52-7.35-5.54-13.32-11.9-17.97-17.8-14.03-17.84-21.6-39.1-21.6-50.04zM305.1 301.07L256 337.77l-49.12-36.7c4.87-6.2 7.6-14.14 7.6-21.23v-12.1c11.55 6.23 25.33 10.42 41.52 10.42s29.97-4.2 41.52-10.4v12.08c0 7.1 2.73 15.04 7.6 21.23zm-110.75-8.37c-4-1.52-8.45-1.77-12.65-.63-.18.04-.36.1-.53.14l-25.92 7.83c4.38-21.55 21.88-38.7 44.2-42v21.8c0 4.7-2.1 9.58-5.1 12.87zm20.35 60.2c-.02-.05-.03-.08-.04-.1-.38-.98-.76-1.92-1.13-2.86-.07-.17-.14-.34-.2-.5-.37-.92-.73-1.83-1.08-2.73-.03-.05-.05-.1-.08-.18-1.12-2.8-2.2-5.47-3.22-8.04-.08-.18-.15-.37-.23-.56-.3-.73-.58-1.46-.87-2.17-.1-.27-.2-.53-.32-.8-.28-.68-.56-1.37-.83-2.05-.08-.2-.16-.4-.24-.6-.5-1.22-1-2.42-1.47-3.58-.13-.32-.26-.64-.4-.95-.17-.45-.35-.9-.53-1.34-.2-.48-.4-.96-.6-1.42-.06-.17-.14-.35-.2-.53-.07-.14-.12-.27-.18-.4-.86-2.1-1.68-4.1-2.47-5.96 0 0 0-.02 0-.03-.43-1-.84-1.97-1.23-2.9-.2-.47-.4-.94-.6-1.4l42.25 31.57-17.65 7.5c-.04 0-.07.03-.1.04l-7.37 3.13c-.42-1.05-.83-2.08-1.23-3.1zm17.9 45.9c-1.5-3.85-3-7.7-4.48-11.57-2.34-6.04-4.57-11.78-6.7-17.25l2.8-1.2 11.42 13.3-3.05 16.72zm23.52 60.94c-.2-.45-.47-.87-.76-1.26-3.4-8.96-7.7-20.3-12.45-32.76l7-38.32h12.14l7 38.32c-5 13.06-9.47 24.87-12.93 34zm8.74-87.34h-17.76l-8.4-9.77L256 355.3l17.3 7.33-8.42 9.77zm18.98 14.83c-1.5 3.86-2.98 7.72-4.47 11.57l-3.06-16.72 11.43-13.3 2.8 1.2c-2.14 5.47-4.37 11.2-6.7 17.25zm28.72-72.05c-.37.88-.76 1.8-1.15 2.73-.05.14-.1.26-.15.38-.4.93-.8 1.88-1.2 2.87-.03.07-.05.13-.08.2-.35.85-.72 1.73-1.1 2.63-.06.17-.12.32-.2.5-.07.2-.16.4-.24.6-.17.4-.33.82-.5 1.23-.2.5-.4 1-.62 1.52-.07.17-.14.34-.2.5-.53 1.28-1.07 2.6-1.6 3.96-.1.2-.2.42-.27.63-.27.68-.55 1.36-.82 2.05-.1.27-.22.54-.33.8-.3.72-.58 1.44-.87 2.16-.08.22-.16.42-.25.63-1 2.53-2.07 5.17-3.16 7.92-.04.1-.07.18-.1.28-.36.88-.72 1.8-1.08 2.7-.07.17-.14.34-.2.5-.38.95-.76 1.9-1.14 2.87 0 .02 0 .04-.02.05-.4 1.05-.83 2.1-1.25 3.16l-7.38-3.12c-.02 0-.05-.02-.07-.03l-17.67-7.5 42.25-31.58c-.2.46-.4.93-.6 1.4zm18.23-22.97c-4.36-1.3-9-1.1-13.17.5-3-3.3-5.1-8.16-5.1-12.86V258c22.46 3.32 39.9 20.3 44.22 42.03l-25.94-7.82zM389 398.4c0 13.12-10.68 23.8-23.8 23.8s-23.8-10.68-23.8-23.8c0-13.13 10.68-23.8 23.8-23.8s23.8 10.67 23.8 23.8z" class="active-path"/></svg>